<?xml version="1.0" encoding="UTF-8" standalone="no"?>
<svg width="120px" height="48px" viewBox="0 0 120 48" version="1.1" xmlns="http://www.w3.org/2000/svg" xmlns:xlink="http://www.w3.org/1999/xlink">
    <!-- Generator: Sketch 3.7 (28169) - http://www.bohemiancoding.com/sketch -->
    <title>logo-mobile</title>
    <desc>Created with Sketch.</desc>
    <defs></defs>
    <g id="logo" stroke="none" stroke-width="1" fill="none" fill-rule="evenodd">
        <g id="LOGO" transform="translate(-32.000000, -262.000000)">
            <g id="logo" transform="translate(32.000000, 262.000000)">
                <polygon id="Fill-1" fill="#F6F6F6" points="119.450439 48 47 48 47 0 120 0 120 48"></polygon>
                <g id="Group" transform="translate(42.000000, 12.000000)" fill="#444444">
                    <path d="M5.15755948,17.1054261 C5.41833534,17.6073391 5.76360259,18.0122087 6.19440431,18.3231652 C6.62520603,18.6341217 7.13111121,18.8647304 7.71211983,19.0149913 C8.29312845,19.1652522 8.89499914,19.2403826 9.51564569,19.2403826 C9.93705948,19.2403826 10.3876802,19.2049043 10.8685509,19.1349913 C11.3494216,19.0650783 11.8000422,18.9294261 12.2204129,18.7290783 C12.6418267,18.5287304 12.9923095,18.2532522 13.2729043,17.9026435 C13.5534991,17.5520348 13.693275,17.1054261 13.693275,16.5649043 C13.693275,15.983687 13.5086457,15.5120348 13.1373009,15.1509913 C12.7669991,14.7899478 12.2809129,14.4894261 11.6800853,14.2494261 C11.0792578,14.0083826 10.3970681,13.7986435 9.63560259,13.6181217 C8.87413707,13.4376 8.10328362,13.2372522 7.32199914,13.0160348 C6.51985259,12.8167304 5.7385681,12.5704696 4.97710259,12.2803826 C4.21563707,11.9892522 3.53449052,11.6136 2.93366293,11.1523826 C2.33179224,10.6911652 1.84570603,10.1151652 1.47644741,9.42333913 C1.10510259,8.73151304 0.919430172,7.89464348 0.919430172,6.91273043 C0.919430172,5.81081739 1.15517155,4.85290435 1.62561121,4.04107826 C2.09709397,3.22925217 2.712525,2.55307826 3.47503362,2.01151304 C4.23649914,1.4709913 5.09810259,1.07029565 6.05984397,0.809426087 C7.02158534,0.5496 7.98332672,0.418121739 8.9450681,0.418121739 C10.0664043,0.418121739 11.1439302,0.54333913 12.1755595,0.793773913 C13.2071888,1.04525217 14.1240767,1.45116522 14.9262233,2.01151304 C15.7273267,2.57290435 16.3636198,3.28977391 16.8340595,4.16107826 C17.3055422,5.03342609 17.5412836,6.09151304 17.5412836,7.33429565 L12.9724905,7.33429565 C12.9318095,6.69255652 12.796206,6.16142609 12.5667233,5.73986087 C12.3361974,5.31933913 12.0305681,4.98855652 11.6498353,4.74855652 C11.2691026,4.50751304 10.8330853,4.33742609 10.3428267,4.23725217 C9.851525,4.13707826 9.31536983,4.0869913 8.73436121,4.0869913 C8.35362845,4.0869913 7.97289569,4.12664348 7.59216293,4.2069913 C7.21143017,4.28733913 6.86616293,4.42716522 6.5553181,4.62751304 C6.24447328,4.82786087 5.98891293,5.07933913 5.78863707,5.37881739 C5.58836121,5.68038261 5.48822328,6.06125217 5.48822328,6.52142609 C5.48822328,6.9429913 5.56854224,7.2842087 5.72918017,7.54403478 C5.888775,7.80490435 6.20483534,8.04594783 6.675275,8.26612174 C7.14571466,8.48629565 7.79765431,8.70646957 8.62900776,8.92768696 C9.46036121,9.14786087 10.5483181,9.42855652 11.8897491,9.76873043 C12.291344,9.85012174 12.8473181,9.99412174 13.5587147,10.2049043 C14.2690681,10.415687 14.9752491,10.751687 15.6772578,11.2118609 C16.3792664,11.6730783 16.9853095,12.2897739 17.4953871,13.0619478 C18.0065078,13.8330783 18.2620681,14.8202087 18.2620681,16.0233391 C18.2620681,17.0052522 18.0711802,17.9172522 17.6914905,18.7593391 C17.3107578,19.6014261 16.7443526,20.327687 15.9933181,20.9391652 C15.2412405,21.5506435 14.3097491,22.0264696 13.1978009,22.367687 C12.0858526,22.7078609 10.7976198,22.8789913 9.3362319,22.8789913 C8.15335259,22.8789913 7.00593879,22.7329043 5.89399052,22.4428174 C4.78204224,22.1527304 3.8004819,21.695687 2.94826638,21.0748174 C2.09709397,20.4529043 1.42011983,19.6609043 0.919430172,18.6998609 C0.418740517,17.7367304 0.178826724,16.5941217 0.19864569,15.2709913 L4.76743879,15.2709913 C4.76743879,15.9930783 4.89678362,16.6045565 5.15755948,17.1054261" id="Fill-3"></path>
                    <polygon id="Fill-5" points="21.1932314 23.0548099 25.9122314 23.0548099 25.7766897 0.930052174 21.0576897 0.930052174"></polygon>
                    <path d="M38.8501138,18.4283478 C39.5312603,18.4283478 40.1925879,18.3187826 40.8340966,18.0975652 C41.4745621,17.8773913 42.0461828,17.5111304 42.5468724,17.0008696 C43.0475621,16.4885217 43.4491569,15.8227826 43.7495707,15.0005217 C44.0499845,14.1793043 44.2001914,13.1765217 44.2001914,11.9942609 C44.2001914,10.9121739 44.0948379,9.93443478 43.884131,9.06208696 C43.6744672,8.19078261 43.3281569,7.44365217 42.8472862,6.82278261 C42.3674586,6.20191304 41.7301224,5.72504348 40.93945,5.39426087 C40.1477345,5.06347826 39.1703466,4.89756522 38.0083293,4.89756522 L34.6422345,4.89756522 L34.6422345,18.4283478 L38.8501138,18.4283478 Z M39.1807776,0.929217391 C40.5639328,0.929217391 41.8511224,1.15043478 43.0433897,1.59078261 C44.2346138,2.03217391 45.2672862,2.69373913 46.1393207,3.57547826 C47.0103121,4.45826087 47.6914586,5.55913043 48.1827603,6.88226087 C48.673019,8.2053913 48.9191914,9.75913043 48.9191914,11.5424348 C48.9191914,13.1066087 48.7189155,14.5497391 48.3183638,15.8728696 C47.916769,17.196 47.558424,18.2621688 46.7095938,19.3802481 C45.8607636,20.4983275 44.6530037,21.6427682 43.4409175,22.1937247 C42.2277882,22.7457247 40.8008227,23.0212029 39.1579348,23.0212029 L29.9003916,23.0212029 L29.9232345,0.929217391 L39.1807776,0.929217391 Z" id="Fill-7"></path>
                    <polygon id="Fill-8" points="68.2453948 0.929530435 68.2453948 4.89787826 56.9141621 4.89787826 56.9141621 9.49857391 67.3139034 9.49857391 67.3139034 13.1664 56.9141621 13.1664 56.9141621 18.4286609 68.4863517 18.4286609 68.4863513 23.0283196 52.1951616 23.0283196 52.1951621 0.929530435"></polygon>
                </g>
                <polygon id="Fill-9" fill="#C13B3B" points="46.9707033 48.000313 0.000312931035 48.000313 0.000312931035 0.000313043478 46.9707033 0.000313043478"></polygon>
                <polygon id="Fill-10" fill="#FEFEFE" points="9.76031883 34.9497071 14.4793188 34.9497071 14.479319 12.9154435 9.76031897 12.9154435"></polygon>
                <polygon id="Fill-11" fill="#FEFEFE" points="24.1050776 12.9146087 33.0622069 27.3166957 33.1227069 27.3166957 33.1227069 12.9146087 37.54025 12.9146087 37.5402495 34.9614265 32.8212495 34.9614265 23.8954138 20.0102609 23.8349138 20.0102609 23.8349133 34.9614265 19.4163271 34.9614265 19.4163276 12.9146087"></polygon>
            </g>
        </g>
    </g>
</svg>